<svg class="icon" viewBox="0 0 1024 1024" xmlns="http://www.w3.org/2000/svg" width="200" height="200"><path d="M748.2 275.9H603.8c-17.4 0-31.5 17.7-31.5 39.5v158.1c0 21.8 14.1 39.5 31.5 39.5h308.4c14.1 0 21.1-21.3 11.2-33.9L770.5 287.5c-5.9-7.5-13.9-11.6-22.3-11.6zm1.9 472.3V603.8c0-17.4-17.7-31.5-39.5-31.5H552.5c-21.8 0-39.5 14.1-39.5 31.5v308.4c0 14.1 21.3 21.1 33.9 11.2l191.7-152.8c7.4-6 11.5-14 11.5-22.4zm-472.3 1.9h144.4c17.4 0 31.5-17.7 31.5-39.5V552.5c0-21.8-14.1-39.5-31.5-39.5H113.8c-14.1 0-21.1 21.3-11.2 33.9l152.8 191.7c6 7.4 14 11.5 22.4 11.5zm-1.9-472.3v144.4c0 17.4 17.7 31.5 39.5 31.5h158.1c21.8 0 39.5-14.1 39.5-31.5V113.8c0-14.1-21.3-21.1-33.9-11.2L287.5 255.5c-7.5 5.9-11.6 13.9-11.6 22.3z" fill="#20809F"/></svg>